<?xml version="1.0" encoding="UTF-8" standalone="no"?>
<svg
        xmlns="http://www.w3.org/2000/svg"
        version="1.1"
        x="0px"
        y="0px"
        viewBox="0 0 100 100"
        enable-background="new 0 0 100 100"
        xml:space="preserve"
        id="svg4"><defs
     id="defs8" />
    <path
            d="M 65.8,50 76.5,39.3 c 2.9,-2.9 2.9,-7.6 0,-10.6 l -4.9,-4.9 c -1.4,-1.4 -3.3,-2.2 -5.3,-2.2 -2,0 -3.9,0.8 -5.3,2.2 L 50.3,34.6 39.6,23.9 c -1.4,-1.4 -3.3,-2.2 -5.3,-2.2 -2,0 -3.9,0.8 -5.3,2.2 l -4.9,4.9 C 22.8,30.1 22,32 22,34 c 0,2 0.8,3.9 2.2,5.3 L 34.9,50 24.2,60.7 C 22.8,62.1 22,64 22,66 c 0,2 0.8,3.9 2.2,5.3 l 4.9,4.9 c 1.4,1.4 3.3,2.2 5.3,2.2 2,0 3.9,-0.8 5.3,-2.2 L 50.4,65.5 61,76.1 c 1.4,1.4 3.3,2.2 5.3,2.2 2,0 3.9,-0.8 5.3,-2.2 l 4.9,-4.9 c 2.9,-2.9 2.9,-7.6 0,-10.6 z"
            id="path2"
            style="fill:#ffffff;fill-opacity:1"
    /></svg>
