<?xml version="1.0" standalone="no"?><!-- Generator: Gravit.io --><svg xmlns="http://www.w3.org/2000/svg" xmlns:xlink="http://www.w3.org/1999/xlink" style="isolation:isolate" viewBox="0 0 225 71" width="225" height="71"><defs><clipPath id="_clipPath_PCtrgaxBpq4eHs79xJrzlHrtG3AC7eKZ"><rect width="225" height="71"/></clipPath></defs><g clip-path="url(#_clipPath_PCtrgaxBpq4eHs79xJrzlHrtG3AC7eKZ)"><g id="Intersport-Heiniger_Lyss"><g id="Group"><path d=" M 31.667 14.627 C 31.667 13.119 32.619 12.087 34.206 12.087 C 35.714 12.087 36.746 13.119 36.746 14.627 L 36.746 32.563 C 36.746 34.071 35.794 35.103 34.206 35.103 C 32.698 35.103 31.667 34.071 31.667 32.563 L 31.667 14.627 Z " fill="rgb(227,6,19)"/><path d=" M 41.032 15.024 C 41.032 12.96 42.063 12.087 44.206 12.087 C 45.238 12.087 46.19 12.484 46.746 13.437 L 55.635 27.722 L 55.714 27.722 L 55.714 14.548 C 55.714 12.881 56.667 12.087 58.175 12.087 C 59.683 12.087 60.635 12.881 60.635 14.548 L 60.635 32.008 C 60.635 33.992 59.762 35.183 57.619 35.183 C 56.032 35.183 55.476 34.865 54.841 33.833 L 46.032 19.944 L 45.952 19.944 L 45.952 32.722 C 45.952 34.389 45 35.183 43.492 35.183 C 41.984 35.183 41.032 34.389 41.032 32.722 L 41.032 15.024 L 41.032 15.024 Z " fill="rgb(227,6,19)"/><path d=" M 68.571 16.77 L 65 16.77 C 63.571 16.77 62.381 16.056 62.381 14.627 C 62.381 13.278 63.571 12.484 65 12.484 L 77.302 12.484 C 78.73 12.484 79.921 13.198 79.921 14.627 C 79.921 16.056 78.73 16.77 77.302 16.77 L 73.73 16.77 L 73.73 32.643 C 73.73 34.151 72.778 35.183 71.19 35.183 C 69.683 35.183 68.651 34.151 68.651 32.643 L 68.651 16.77 L 68.571 16.77 Z " fill="rgb(227,6,19)"/><path d=" M 81.667 15.421 C 81.667 13.198 82.857 12.484 84.603 12.484 L 95.714 12.484 C 97.222 12.484 98.254 12.881 98.254 14.548 C 98.254 16.135 97.143 16.611 95.714 16.611 L 86.746 16.611 L 86.746 21.452 L 94.524 21.452 C 95.873 21.452 96.905 21.849 96.905 23.437 C 96.905 25.024 95.873 25.421 94.524 25.421 L 86.746 25.421 L 86.746 30.817 L 96.032 30.817 C 97.54 30.817 98.571 31.214 98.571 32.881 C 98.571 34.468 97.46 34.944 96.032 34.944 L 84.683 34.944 C 82.857 34.944 81.746 34.23 81.746 32.008 L 81.746 15.421 L 81.667 15.421 Z " fill="rgb(227,6,19)"/><path d=" M 105.873 22.405 L 110.159 22.405 C 112.063 22.405 113.968 21.929 113.968 19.389 C 113.968 17.008 112.54 16.373 110.317 16.373 L 105.873 16.373 L 105.873 22.405 L 105.873 22.405 Z  M 100.794 15.421 C 100.794 13.198 101.984 12.484 103.73 12.484 L 111.349 12.484 C 117.381 12.484 118.968 15.817 118.968 18.675 C 118.968 21.056 117.54 23.437 115.159 23.992 L 115.159 24.071 C 117.778 24.468 118.175 26.294 118.175 28.595 C 118.175 31.135 118.889 32.087 118.889 33.198 C 118.889 34.389 117.698 35.183 116.508 35.183 C 113.73 35.183 113.492 32.484 113.492 31.611 C 113.492 27.722 112.778 26.135 110 26.135 L 105.794 26.135 L 105.794 32.643 C 105.794 34.151 104.841 35.183 103.254 35.183 C 101.746 35.183 100.714 34.151 100.714 32.643 L 100.714 15.421 L 100.794 15.421 Z " fill="rgb(227,6,19)"/><path d=" M 188.254 22.405 L 192.54 22.405 C 194.444 22.405 196.349 21.929 196.349 19.389 C 196.349 17.008 194.921 16.373 192.698 16.373 L 188.254 16.373 L 188.254 22.405 L 188.254 22.405 Z  M 183.175 15.421 C 183.175 13.198 184.365 12.484 186.111 12.484 L 193.73 12.484 C 199.762 12.484 201.349 15.817 201.349 18.675 C 201.349 21.056 199.921 23.437 197.54 23.992 L 197.54 24.071 C 200.159 24.468 200.556 26.294 200.556 28.595 C 200.556 31.135 201.27 32.087 201.27 33.198 C 201.27 34.389 200.079 35.183 198.889 35.183 C 196.111 35.183 195.873 32.484 195.873 31.611 C 195.873 27.722 195.159 26.135 192.381 26.135 L 188.175 26.135 L 188.175 32.643 C 188.175 34.151 187.222 35.183 185.635 35.183 C 184.127 35.183 183.095 34.151 183.095 32.643 L 183.095 15.421 L 183.175 15.421 Z " fill="rgb(22,65,148)"/><path d=" M 134.048 21.849 C 138.651 22.881 139.841 25.659 139.841 28.278 C 139.841 32.325 136.825 35.262 130.714 35.262 C 124.286 35.262 121.429 32.087 121.429 29.627 C 121.429 28.357 122.302 27.563 123.571 27.563 C 126.349 27.563 125.635 31.611 130.714 31.611 C 133.333 31.611 134.762 30.183 134.762 28.675 C 134.762 27.802 134.365 26.77 132.619 26.373 L 126.905 24.944 C 122.302 23.754 121.508 21.214 121.508 18.833 C 121.508 13.913 126.111 12.008 130.397 12.008 C 134.365 12.008 139.048 14.23 139.048 17.167 C 139.048 18.437 137.937 19.151 136.746 19.151 C 134.365 19.151 134.841 15.817 130.079 15.817 C 127.698 15.817 126.429 16.929 126.429 18.437 C 126.429 19.944 128.254 20.5 129.921 20.817 L 134.048 21.849 Z " fill="rgb(22,65,148)"/><path d=" M 147.143 22.643 L 151.111 22.643 C 153.175 22.643 154.683 21.373 154.683 19.468 C 154.683 17.246 153.095 16.294 150.635 16.294 L 147.222 16.294 L 147.222 22.643 L 147.143 22.643 Z  M 142.063 15.421 C 142.063 13.198 143.254 12.484 145 12.484 L 151.984 12.484 C 156.27 12.484 159.683 14.548 159.683 19.548 C 159.683 23.595 156.905 26.611 151.984 26.611 L 147.143 26.611 L 147.143 32.643 C 147.143 34.151 146.19 35.183 144.603 35.183 C 143.095 35.183 142.063 34.151 142.063 32.643 L 142.063 15.421 Z " fill="rgb(22,65,148)"/><path d=" M 170.794 31.135 C 175.397 31.135 175.397 27.563 175.397 23.278 C 175.397 18.992 174.921 15.976 170.794 15.976 C 166.667 15.976 166.19 18.992 166.19 23.278 C 166.19 27.563 166.032 31.135 170.794 31.135 Z  M 170.794 12.008 C 178.095 12.008 180.476 16.849 180.476 23.357 C 180.476 29.627 178.413 35.262 170.794 35.262 C 162.857 35.262 161.111 30.103 161.111 23.357 C 161.111 16.849 163.492 12.008 170.794 12.008 Z " fill="rgb(22,65,148)"/><path d=" M 208.175 16.77 L 204.603 16.77 C 203.175 16.77 201.984 16.056 201.984 14.627 C 201.984 13.278 203.175 12.484 204.603 12.484 L 216.905 12.484 C 218.333 12.484 219.524 13.198 219.524 14.627 C 219.524 16.056 218.333 16.77 216.905 16.77 L 213.333 16.77 L 213.333 32.643 C 213.333 34.151 212.381 35.183 210.794 35.183 C 209.286 35.183 208.254 34.151 208.254 32.643 L 208.254 16.77 L 208.175 16.77 Z " fill="rgb(22,65,148)"/><path d=" M 222.54 14.468 L 222.54 13.675 L 223.175 13.675 C 223.333 13.675 223.413 13.675 223.571 13.754 C 223.73 13.833 223.73 13.913 223.73 14.071 C 223.73 14.151 223.651 14.31 223.571 14.389 C 223.413 14.468 223.333 14.548 223.095 14.548 L 222.54 14.548 L 222.54 14.468 Z  M 224.048 15.659 L 223.571 14.627 C 223.889 14.548 224.048 14.31 224.048 14.071 C 224.048 13.913 223.968 13.675 223.73 13.595 C 223.571 13.516 223.333 13.437 223.175 13.437 L 222.222 13.437 L 222.222 15.659 L 222.54 15.659 L 222.54 14.706 L 223.175 14.706 L 223.651 15.659 L 224.048 15.659 Z " fill="rgb(22,65,148)"/><path d=" M 223.016 12.96 C 222.143 12.96 221.349 13.675 221.349 14.627 C 221.349 15.5 222.063 16.294 223.016 16.294 C 223.889 16.294 224.683 15.579 224.683 14.627 C 224.603 13.754 223.889 12.96 223.016 12.96 Z  M 223.016 16.611 C 221.905 16.611 221.032 15.738 221.032 14.627 C 221.032 13.516 221.905 12.643 223.016 12.643 C 224.127 12.643 225 13.516 225 14.627 C 225 15.738 224.127 16.611 223.016 16.611 Z " fill="rgb(22,65,148)"/><path d=" M 0 17.246 C 0 14.468 2.222 12.246 5 12.246 C 7.778 12.246 10 14.468 10 17.246 C 10 20.024 7.778 22.246 5 22.246 C 2.222 22.167 0 19.944 0 17.246 Z " fill="rgb(227,6,19)"/><path d=" M 5 34.865 C 4.286 34.865 3.73 34.23 3.73 33.516 L 3.73 25.341 C 3.73 24.627 4.286 23.992 5 23.992 C 12.857 23.992 13.413 13.357 24.683 13.357 C 25.397 13.357 25.952 13.992 25.952 14.706 L 25.952 22.802 C 25.952 23.516 25.397 24.151 24.683 24.151 C 16.984 24.23 16.508 34.865 5 34.865 Z " fill="rgb(22,65,148)"/></g><g id="Group"><path d=" M 61.746 54.548 L 61.746 48.437 L 56.746 48.437 L 56.746 54.548 L 53.889 54.548 L 53.889 39.865 L 56.746 39.865 L 56.746 45.897 L 61.746 45.897 L 61.746 39.865 L 64.603 39.865 L 64.603 54.548 L 61.746 54.548 Z " fill="rgb(100,99,99)"/><path d=" M 68.254 54.548 L 68.254 39.865 L 77.937 39.865 L 77.937 42.405 L 71.111 42.405 L 71.111 45.817 L 76.905 45.817 L 76.905 48.357 L 71.111 48.357 L 71.111 51.929 L 77.937 51.929 L 77.937 54.468 L 68.254 54.468 L 68.254 54.548 Z " fill="rgb(100,99,99)"/><path d=" M 80.952 54.548 L 80.952 39.865 L 83.81 39.865 L 83.81 54.548 L 80.952 54.548 Z " fill="rgb(100,99,99)"/><path d=" M 96.111 54.548 L 90.317 45.5 L 90.317 54.548 L 87.46 54.548 L 87.46 39.865 L 90 39.865 L 95.794 48.833 L 95.794 39.865 L 98.651 39.865 L 98.651 54.548 L 96.111 54.548 Z " fill="rgb(100,99,99)"/><path d=" M 102.302 54.548 L 102.302 39.865 L 105.159 39.865 L 105.159 54.548 L 102.302 54.548 Z " fill="rgb(100,99,99)"/><path d=" M 117.857 52.96 C 116.746 54.151 115.397 54.627 113.73 54.627 C 112.143 54.627 110.873 54.071 109.762 53.04 C 109.127 52.405 108.73 51.69 108.571 50.817 C 108.413 49.944 108.333 48.754 108.333 47.167 C 108.333 45.579 108.413 44.31 108.571 43.516 C 108.73 42.643 109.127 41.929 109.762 41.294 C 110.873 40.183 112.143 39.706 113.73 39.706 C 117.063 39.706 118.889 41.849 119.286 44.389 L 116.429 44.389 C 116.111 42.96 115.238 42.246 113.81 42.246 C 113.016 42.246 112.46 42.484 111.984 43.04 C 111.429 43.754 111.27 44.23 111.27 47.167 C 111.27 50.024 111.429 50.659 111.984 51.294 C 112.381 51.849 113.016 52.087 113.81 52.087 C 114.683 52.087 115.317 51.849 115.873 51.294 C 116.27 50.817 116.508 50.103 116.508 49.31 L 116.508 48.754 L 113.81 48.754 L 113.81 46.373 L 119.365 46.373 L 119.365 48.516 C 119.286 50.659 118.889 51.929 117.857 52.96 Z " fill="rgb(100,99,99)"/><path d=" M 122.143 54.548 L 122.143 39.865 L 131.825 39.865 L 131.825 42.405 L 125 42.405 L 125 45.817 L 130.794 45.817 L 130.794 48.357 L 125 48.357 L 125 51.929 L 131.825 51.929 L 131.825 54.468 L 122.143 54.468 L 122.143 54.548 Z " fill="rgb(100,99,99)"/><path d=" M 142.698 54.548 L 139.841 48.675 L 137.778 48.675 L 137.778 54.548 L 134.921 54.548 L 134.921 39.865 L 140.714 39.865 C 143.73 39.865 145.476 41.929 145.476 44.389 C 145.476 46.452 144.206 47.722 142.778 48.278 L 146.032 54.627 L 142.698 54.627 L 142.698 54.548 Z  M 140.397 42.405 L 137.698 42.405 L 137.698 46.294 L 140.397 46.294 C 141.667 46.294 142.46 45.5 142.46 44.389 C 142.54 43.198 141.667 42.405 140.397 42.405 Z " fill="rgb(100,99,99)"/><path d=" M 154.603 39.865 L 155.714 39.865 L 155.714 53.595 L 163.492 53.595 L 163.492 54.548 L 154.603 54.548 L 154.603 39.865 Z " fill="rgb(100,99,99)"/><path d=" M 166.349 58.357 C 165.873 58.833 165.159 58.992 164.444 58.992 L 163.968 58.992 L 163.968 58.04 L 164.365 58.04 C 165.476 58.04 165.794 57.643 166.19 56.69 L 166.984 54.468 L 163.333 44.548 L 164.524 44.548 L 167.54 53.278 L 170.556 44.548 L 171.746 44.548 L 167.143 57.167 C 166.905 57.802 166.667 58.198 166.349 58.357 Z " fill="rgb(100,99,99)"/><path d=" M 177.222 54.627 C 175.476 54.627 174.206 54.151 173.175 53.198 L 173.889 52.484 C 174.683 53.278 175.714 53.675 177.143 53.675 C 179.127 53.675 180.159 52.96 180.159 51.69 C 180.159 50.659 179.603 50.183 178.254 50.024 L 176.587 49.865 C 174.603 49.706 173.571 48.833 173.571 47.246 C 173.571 45.5 175 44.389 177.143 44.389 C 178.492 44.389 179.762 44.786 180.635 45.421 L 179.921 46.135 C 179.127 45.579 178.254 45.262 177.143 45.262 C 175.476 45.262 174.603 45.976 174.603 47.167 C 174.603 48.198 175.238 48.675 176.587 48.833 L 178.175 48.992 C 179.841 49.151 181.111 49.627 181.111 51.611 C 181.19 53.516 179.683 54.627 177.222 54.627 Z " fill="rgb(100,99,99)"/><path d=" M 187.54 54.627 C 185.794 54.627 184.524 54.151 183.492 53.198 L 184.206 52.484 C 185 53.278 186.032 53.675 187.46 53.675 C 189.444 53.675 190.476 52.96 190.476 51.69 C 190.476 50.659 189.921 50.183 188.571 50.024 L 186.905 49.865 C 184.921 49.706 183.889 48.833 183.889 47.246 C 183.889 45.5 185.317 44.389 187.46 44.389 C 188.81 44.389 190.079 44.786 190.952 45.421 L 190.238 46.135 C 189.444 45.579 188.571 45.262 187.46 45.262 C 185.794 45.262 184.921 45.976 184.921 47.167 C 184.921 48.198 185.556 48.675 186.905 48.833 L 188.492 48.992 C 190.159 49.151 191.429 49.627 191.429 51.611 C 191.508 53.516 189.921 54.627 187.54 54.627 Z " fill="rgb(100,99,99)"/></g></g></g></svg>